<mxfile host="Electron" modified="2023-09-26T05:58:14.519Z" agent="Mozilla/5.0 (Windows NT 10.0; Win64; x64) AppleWebKit/537.36 (KHTML, like Gecko) draw.io/21.7.5 Chrome/114.0.5735.289 Electron/25.8.1 Safari/537.36" etag="zbWDER4GuE-KY8XNcW8y" version="21.7.5" type="device">
  <diagram id="iXHAIwDOy_ckA0oU7I6M" name="Страница 1">
    <mxGraphModel dx="621" dy="820" grid="1" gridSize="10" guides="1" tooltips="1" connect="1" arrows="1" fold="1" page="1" pageScale="1" pageWidth="827" pageHeight="1169" math="0" shadow="0">
      <root>
        <mxCell id="0" />
        <mxCell id="1" parent="0" />
        <mxCell id="sO1oYzhVz2CwoxDK4dTX-3" style="edgeStyle=orthogonalEdgeStyle;rounded=0;orthogonalLoop=1;jettySize=auto;html=1;exitX=0.5;exitY=1;exitDx=0;exitDy=0;entryX=0.5;entryY=0;entryDx=0;entryDy=0;endArrow=open;endFill=0;" parent="1" target="sO1oYzhVz2CwoxDK4dTX-2" edge="1">
          <mxGeometry relative="1" as="geometry">
            <mxPoint x="320" y="70" as="sourcePoint" />
          </mxGeometry>
        </mxCell>
        <mxCell id="sO1oYzhVz2CwoxDK4dTX-5" style="edgeStyle=orthogonalEdgeStyle;rounded=0;orthogonalLoop=1;jettySize=auto;html=1;entryX=0.5;entryY=0;entryDx=0;entryDy=0;endArrow=open;endFill=0;" parent="1" source="sO1oYzhVz2CwoxDK4dTX-2" edge="1">
          <mxGeometry relative="1" as="geometry">
            <mxPoint x="320" y="180" as="targetPoint" />
          </mxGeometry>
        </mxCell>
        <mxCell id="sO1oYzhVz2CwoxDK4dTX-2" value="Ввод i" style="shape=parallelogram;perimeter=parallelogramPerimeter;whiteSpace=wrap;html=1;fixedSize=1;" parent="1" vertex="1">
          <mxGeometry x="240" y="100" width="160" height="40" as="geometry" />
        </mxCell>
        <mxCell id="TM_lnyqm9ptPYNRuYTzy-4" value="" style="edgeStyle=orthogonalEdgeStyle;rounded=0;orthogonalLoop=1;jettySize=auto;html=1;" edge="1" parent="1" source="sO1oYzhVz2CwoxDK4dTX-6" target="sO1oYzhVz2CwoxDK4dTX-14">
          <mxGeometry relative="1" as="geometry" />
        </mxCell>
        <mxCell id="sO1oYzhVz2CwoxDK4dTX-6" value="Вывод result" style="shape=parallelogram;perimeter=parallelogramPerimeter;whiteSpace=wrap;html=1;fixedSize=1;" parent="1" vertex="1">
          <mxGeometry x="235" y="400" width="170" height="50" as="geometry" />
        </mxCell>
        <mxCell id="sO1oYzhVz2CwoxDK4dTX-14" value="Конец" style="ellipse;whiteSpace=wrap;html=1;" parent="1" vertex="1">
          <mxGeometry x="245" y="530" width="120" height="70" as="geometry" />
        </mxCell>
        <mxCell id="sO1oYzhVz2CwoxDK4dTX-15" value="Начало" style="ellipse;whiteSpace=wrap;html=1;" parent="1" vertex="1">
          <mxGeometry x="260" width="120" height="70" as="geometry" />
        </mxCell>
        <mxCell id="TM_lnyqm9ptPYNRuYTzy-2" style="edgeStyle=orthogonalEdgeStyle;rounded=0;orthogonalLoop=1;jettySize=auto;html=1;exitX=0.5;exitY=1;exitDx=0;exitDy=0;entryX=0.5;entryY=0;entryDx=0;entryDy=0;" edge="1" parent="1" source="A3mxCB0CvMOUwcV96I_G-1" target="TM_lnyqm9ptPYNRuYTzy-1">
          <mxGeometry relative="1" as="geometry" />
        </mxCell>
        <mxCell id="A3mxCB0CvMOUwcV96I_G-1" value="i := 1 to 10 do" style="rhombus;whiteSpace=wrap;html=1;" parent="1" vertex="1">
          <mxGeometry x="245" y="180" width="150" height="60" as="geometry" />
        </mxCell>
        <mxCell id="TM_lnyqm9ptPYNRuYTzy-3" style="edgeStyle=orthogonalEdgeStyle;rounded=0;orthogonalLoop=1;jettySize=auto;html=1;exitX=0.5;exitY=1;exitDx=0;exitDy=0;entryX=0.5;entryY=0;entryDx=0;entryDy=0;" edge="1" parent="1" source="TM_lnyqm9ptPYNRuYTzy-1" target="sO1oYzhVz2CwoxDK4dTX-6">
          <mxGeometry relative="1" as="geometry" />
        </mxCell>
        <mxCell id="TM_lnyqm9ptPYNRuYTzy-1" value="result := 9 ;" style="rounded=0;whiteSpace=wrap;html=1;" vertex="1" parent="1">
          <mxGeometry x="260" y="290" width="120" height="60" as="geometry" />
        </mxCell>
      </root>
    </mxGraphModel>
  </diagram>
</mxfile>
